Coordinates
version=1
nRows=10
nColumns=40
inDegrees=yes

Units are S.I. units (second, meters, Newtons, ...)
If the header above contains a line with 'inDegrees', this indicates whether rotational values are in degrees (yes) or radians (no).

endheader
time	pelvis_tilt	pelvis_list	pelvis_rotation	pelvis_tx	pelvis_ty	pelvis_tz	hip_flexion_r	hip_adduction_r	hip_rotation_r	knee_angle_r	knee_angle_r_beta	ankle_angle_r	subtalar_angle_r	mtp_angle_r	hip_flexion_l	hip_adduction_l	hip_rotation_l	knee_angle_l	knee_angle_l_beta	ankle_angle_l	subtalar_angle_l	mtp_angle_l	lumbar_extension	lumbar_bending	lumbar_rotation	arm_flex_r	arm_add_r	arm_rot_r	elbow_flex_r	pro_sup_r	wrist_flex_r	wrist_dev_r	arm_flex_l	arm_add_l	arm_rot_l	elbow_flex_l	pro_sup_l	wrist_flex_l	wrist_dev_l
     17.14999999999999857891	     34.18694989146450069484	     -8.95368487153718817240	    178.32909524853295124558	      0.35371141112761639302	      0.69638823803195182283	     -0.58929153248872523374	     95.64657873565828083429	     -7.28660201688099107287	      8.65233834348818042770	     80.81135107910621684368	      1.41042414931547610557	     21.34743185930874176393	      0.00000000000000000000	      0.00000000000000000000	     90.54046926243080406493	     -5.34816363670657324292	     -9.76374182465752582516	     80.61103448201548360430	      1.40692796514985185574	     24.30585054597616689875	      0.00000000000000000000	      0.00000000000000000000	    -38.72721287140876000876	     -6.81689650765897781071	     -5.10503761664714872381	     56.16831924061340686194	    -13.34586379248942122899	     38.13986980385018910056	     10.57036772543437308514	     13.03485135882687551145	      0.00000000000000000000	      0.00000000000000000000	     63.55638143544734219859	    -16.58864914732116702112	     38.32665831858688676448	     16.03491934893291315234	     86.00895446117139897524	      0.00000000000000000000	      0.00000000000000000000
     17.15500000000000113687	     34.25867660615723764295	     -8.94358341221296626600	    178.36671466532035879027	      0.35375586039397194371	      0.69735824057552542321	     -0.58902708387800395418	     95.58467893680074212170	     -7.36808682865625819147	      8.58819106954317312841	     80.59453020581661064625	      1.40663991118952313997	     21.26018342003044736543	      0.00000000000000000000	      0.00000000000000000000	     90.48464360066574840857	     -5.29908585760744266224	     -9.80639008814803325720	     80.38348474222669892697	      1.40295647297848136148	     24.20867089575605390905	      0.00000000000000000000	      0.00000000000000000000	    -38.70782729281943090882	     -6.77493912958473032404	     -5.15133483344218046085	     56.21862403198085189615	    -13.26948793766777257019	     37.89298519232205109120	     10.46405422849085553594	     13.28804392443081106023	      0.00000000000000000000	      0.00000000000000000000	     63.55472376346136087477	    -16.63369145280072558535	     38.42616869839210380633	     16.10039689059815515293	     85.85758228171910388937	      0.00000000000000000000	      0.00000000000000000000
     17.16000000000000014211	     34.35040949865794601692	     -8.92832757110138786061	    178.24323545191464290838	      0.35389118947070358212	      0.69837583820333437590	     -0.58904418428528759755	     95.51767506019055531397	     -7.25173650646078105098	      8.51692153699976373105	     80.31288129595181146669	      1.40172421037772965136	     21.12987503158555924188	      0.00000000000000000000	      0.00000000000000000000	     90.44670567235233704650	     -5.45106704415561083010	     -9.86564410453836693193	     80.18409448598390554253	      1.39947645651064944694	     24.05706325695360803252	      0.00000000000000000000	      0.00000000000000000000	    -38.66272087529700485220	     -6.83212267196888056731	     -5.00848638653575495283	     56.21397211219681366856	    -13.32905616049944441670	     38.02071728586930277061	     10.67459098137030615305	     11.94757510047485382643	      0.00000000000000000000	      0.00000000000000000000	     63.67663927072065632728	    -16.41540834288982253497	     37.99366971220978683732	     15.79160829392138687410	     86.12199542624640002941	      0.00000000000000000000	      0.00000000000000000000
     17.16499999999999914735	     34.48535724995487328215	     -8.95306389589251416794	    178.38015997474713003612	      0.35411214661153034289	      0.69936075196116653796	     -0.58856892211933198311	     95.52979922771737619769	     -7.43439407007014718687	      8.49283607335360812840	     80.07785834440713301774	      1.39762228605551985794	     21.02416400403307861211	      0.00000000000000000000	      0.00000000000000000000	     90.44453532753908575614	     -5.22503272360929837959	     -9.83321396688480398041	     79.86892214745188312008	      1.39397566149205531794	     23.97044656887060654071	      0.00000000000000000000	      0.00000000000000000000	    -38.59434422854796764568	     -6.76298940797970882244	     -5.14027580241518045057	     56.28156531261782902220	    -13.26686387325222327149	     37.83232417680338954824	     10.40479526155817069366	     13.34979908419575522771	      0.00000000000000000000	      0.00000000000000000000	     63.65580573435921252212	    -16.60297184739176756807	     38.64352044365232785594	     16.05988714983359244570	     85.64327802772741904391	      0.00000000000000000000	      0.00000000000000000000
     17.17000000000000170530	     34.45341963293206077878	     -8.89454500095943600968	    178.17203740427493130483	      0.35398911709234237577	      0.70044894039414251630	     -0.58848274012144718981	     95.32396620723083913163	     -7.29387054351598873581	      8.34958067728778452476	     79.82197857856414202615	      1.39315634165232760111	     20.94211546466986817450	      0.00000000000000000000	      0.00000000000000000000	     90.28858672808819108013	     -5.11660912351200547477	     -9.52734398206487576033	     79.59068751573153122081	      1.38911955107546147836	     24.09244035354619128952	      0.00000000000000000000	      0.00000000000000000000	    -38.65308377628643654589	     -6.78287538306249793152	     -4.94045960524137672820	     56.30188627446159443934	    -13.33062868649540178012	     38.16767667319616208488	     10.74732201231676675945	     10.61759352215572249634	      0.00000000000000000000	      0.00000000000000000000	     63.73198205013946449071	    -16.39860478600169457764	     38.19481246165675969451	     15.77966564028192841818	     86.01636821934766885533	      0.00000000000000000000	      0.00000000000000000000
     17.17500000000000071054	     34.68207040974262156396	     -8.88534454393425221497	    178.21990647240173188948	      0.35440503365106829081	      0.70160907674469508155	     -0.58828826499045183684	     95.36079580549827028335	     -7.31289301530858981693	      8.32288825710966051474	     79.45565816532320013721	      1.38676284432400698243	     20.79630348111027160485	      0.00000000000000000000	      0.00000000000000000000	     90.35302773569587486691	     -5.37603196058569388072	     -9.87201745952628151315	     79.37520188097958850904	      1.38535861725829012592	     23.76871246259976189208	      0.00000000000000000000	      0.00000000000000000000	    -38.49651647181092783967	     -6.75700334259786927760	     -4.94426350572461092980	     56.32414640943785855143	    -13.34517283387897990110	     38.08592815099442674409	     10.85342355628065291739	     10.03606962040688976856	      0.00000000000000000000	      0.00000000000000000000	     63.78321487811589207695	    -16.38404211980354929779	     38.28855115651344220851	     15.76501611300412264427	     85.99696828775475410112	      0.00000000000000000000	      0.00000000000000000000
     17.17999999999999971578	     34.75742279144582624895	     -8.93243888179927303383	    178.13090937987090001116	      0.35440277068280423567	      0.70237051524764726462	     -0.58813899699384020181	     95.33368915793570863570	     -7.23848355124760178825	      8.34683988021434863924	     79.25623872007777492854	      1.38328231841197357710	     20.70350763900792401273	      0.00000000000000000000	      0.00000000000000000000	     90.30677107345233878277	     -5.12745110823776162334	     -9.62411578031511361075	     79.06567423794822957461	      1.37995634076145523572	     23.86935151097436857981	      0.00000000000000000000	      0.00000000000000000000	    -38.42371768944394716527	     -6.84125289582628504093	     -4.88969389988927716217	     56.33730784899459820281	    -13.31981312407827999778	     37.95177783971155349718	     10.57188147089993002226	     11.89543284686043733700	      0.00000000000000000000	      0.00000000000000000000	     63.77197841205970973988	    -16.43570043560230331536	     38.65168169891863669818	     15.82054028878565610228	     86.04583446716387129527	      0.00000000000000000000	      0.00000000000000000000
     17.18499999999999872102	     34.89482561659687576139	     -8.84486792750930561624	    178.18994453325751692319	      0.35466891364893471383	      0.70367066919050536011	     -0.58786378932331040392	     95.25493910323943680396	     -7.29790540590271952226	      8.24396734213499371435	     78.91138076371953502530	      1.37726341162182341904	     20.56158468879258194306	      0.00000000000000000000	      0.00000000000000000000	     90.28789368869720988187	     -5.39214500220554704413	     -9.93563707381948013619	     78.89054898403456661526	      1.37689982847727065973	     23.59758455025522394521	      0.00000000000000000000	      0.00000000000000000000	    -38.35937698897683389987	     -6.71524831169806901698	     -4.89417211764650339489	     56.39071226329994601656	    -13.32914161144848286256	     38.23733495116523783963	     10.74232542322504002641	     10.25282730384801688217	      0.00000000000000000000	      0.00000000000000000000	     63.82109937702512070246	    -16.35959643334199498099	     38.40511547518062940298	     15.69142982828888754909	     86.01315666533446346875	      0.00000000000000000000	      0.00000000000000000000
     17.19000000000000127898	     35.01218763286026103287	     -8.88215462269750766211	    178.14465259413935882549	      0.35483085485675414095	      0.70485216262086958228	     -0.58774687839149231117	     95.20789038067009357746	     -7.26759220734865341029	      8.23970431579488682416	     78.60128691702550440823	      1.37185125300683807836	     20.40950186251360065626	      0.00000000000000000000	      0.00000000000000000000	     90.23288006600077437724	     -5.41635170334329352215	     -9.99629572991974768570	     78.59633555116974434895	      1.37176483537018412129	     23.43404250874183247788	      0.00000000000000000000	      0.00000000000000000000	    -38.29728156185186094262	     -6.76611811556114606248	     -4.85281323645200224348	     56.43882156906501279536	    -13.32101465504210402457	     38.21396218882851769649	     10.61552950479198997868	     10.84167300777491682595	      0.00000000000000000000	      0.00000000000000000000	     63.86671338053108115673	    -16.29855399511145819247	     38.34968258357202586240	     15.63986491780805820895	     86.09984155796169602581	      0.00000000000000000000	      0.00000000000000000000
     17.19500000000000028422	     35.11319468566158263911	     -8.94921208099403919789	    178.07851942645356757566	      0.35505009394091824326	      0.70611947501114480374	     -0.58764547774814424042	     95.15641146316762899460	     -7.25564009640539264723	      8.19634565801708880883	     78.26816618653539592287	      1.36603719945313706319	     20.25136429221329237294	      0.00000000000000000000	      0.00000000000000000000	     90.14937729461499316130	     -5.43594990210957185184	    -10.08039835070124468075	     78.28846482589609934166	      1.36639147754365630760	     23.32967296890837971546	      0.00000000000000000000	      0.00000000000000000000	    -38.25073774377425195325	     -6.85849791386122209502	     -4.83223333108406194469	     56.47766665155816667721	    -13.32094607408710906782	     38.24099402378851664253	     10.41400829724396892573	     12.47806310726113743215	      0.00000000000000000000	      0.00000000000000000000	     63.91135765993774242588	    -16.36197881028261846836	     38.71300952370364001354	     15.70574234921574152679	     86.10574789385613314607	      0.00000000000000000000	      0.00000000000000000000
